<svg width="100" height="100" xmlns="http://www.w3.org/2000/svg" xml:space="preserve" enable-background="new 0 0 100 100" version="1.1">

 <g>
  <title>Layer 1</title>
  <path id="svg_1" d="m-0.12424,3.73512l-0.812,-0.812l0,-1.635c-0.604,-0.118 -0.793,-0.664 -0.936,-1.074c-0.171,-0.493 -0.273,-0.693 -0.604,-0.693c-0.731,0 -1.208,-0.978 -1.459,-2.987c-0.173,-1.383 -0.175,-2.784 -0.175,-2.798l0.502,0c0,3.263 0.587,5.281 1.131,5.281c0.721,0 0.928,0.597 1.078,1.032c0.168,0.485 0.285,0.759 0.713,0.759l0.252,0l0,1.908l0.665,0.664l-0.355,0.355z" stroke-miterlimit="10" stroke-width="0.0126" stroke="#000000" fill="none"/>
 </g>
</svg>